<mxfile host="app.diagrams.net" modified="2023-10-27T04:10:57.347Z" agent="Mozilla/5.0 (Windows NT 10.0; Win64; x64) AppleWebKit/537.36 (KHTML, like Gecko) Chrome/118.0.0.0 Safari/537.36" etag="DnZiRAYxZkpd6BGeuYeP" version="22.0.8" type="device" pages="4">
  <diagram id="C5RBs43oDa-KdzZeNtuy" name="1">
    <mxGraphModel dx="1434" dy="796" grid="1" gridSize="10" guides="1" tooltips="1" connect="1" arrows="1" fold="1" page="1" pageScale="1" pageWidth="827" pageHeight="1169" math="0" shadow="0">
      <root>
        <mxCell id="WIyWlLk6GJQsqaUBKTNV-0" />
        <mxCell id="WIyWlLk6GJQsqaUBKTNV-1" parent="WIyWlLk6GJQsqaUBKTNV-0" />
        <mxCell id="Z4MWUMGOCCTxh3TUUwYe-2" value="" style="edgeStyle=orthogonalEdgeStyle;rounded=0;orthogonalLoop=1;jettySize=auto;html=1;" parent="WIyWlLk6GJQsqaUBKTNV-1" source="Z4MWUMGOCCTxh3TUUwYe-0" target="Z4MWUMGOCCTxh3TUUwYe-1" edge="1">
          <mxGeometry relative="1" as="geometry" />
        </mxCell>
        <mxCell id="Z4MWUMGOCCTxh3TUUwYe-0" value="Start" style="ellipse;whiteSpace=wrap;html=1;" parent="WIyWlLk6GJQsqaUBKTNV-1" vertex="1">
          <mxGeometry x="354" y="20" width="120" height="80" as="geometry" />
        </mxCell>
        <mxCell id="Z4MWUMGOCCTxh3TUUwYe-4" value="" style="edgeStyle=orthogonalEdgeStyle;rounded=0;orthogonalLoop=1;jettySize=auto;html=1;" parent="WIyWlLk6GJQsqaUBKTNV-1" source="Z4MWUMGOCCTxh3TUUwYe-1" target="Z4MWUMGOCCTxh3TUUwYe-3" edge="1">
          <mxGeometry relative="1" as="geometry" />
        </mxCell>
        <mxCell id="Z4MWUMGOCCTxh3TUUwYe-1" value="int angka[] = new int[60]" style="shape=hexagon;perimeter=hexagonPerimeter2;whiteSpace=wrap;html=1;fixedSize=1;" parent="WIyWlLk6GJQsqaUBKTNV-1" vertex="1">
          <mxGeometry x="354" y="150" width="120" height="80" as="geometry" />
        </mxCell>
        <mxCell id="Z4MWUMGOCCTxh3TUUwYe-6" value="" style="edgeStyle=orthogonalEdgeStyle;rounded=0;orthogonalLoop=1;jettySize=auto;html=1;" parent="WIyWlLk6GJQsqaUBKTNV-1" source="Z4MWUMGOCCTxh3TUUwYe-3" target="Z4MWUMGOCCTxh3TUUwYe-5" edge="1">
          <mxGeometry relative="1" as="geometry" />
        </mxCell>
        <mxCell id="Z4MWUMGOCCTxh3TUUwYe-3" value="int i = 0;" style="whiteSpace=wrap;html=1;" parent="WIyWlLk6GJQsqaUBKTNV-1" vertex="1">
          <mxGeometry x="354" y="280" width="120" height="60" as="geometry" />
        </mxCell>
        <mxCell id="Z4MWUMGOCCTxh3TUUwYe-12" value="" style="edgeStyle=orthogonalEdgeStyle;rounded=0;orthogonalLoop=1;jettySize=auto;html=1;" parent="WIyWlLk6GJQsqaUBKTNV-1" source="Z4MWUMGOCCTxh3TUUwYe-5" target="Z4MWUMGOCCTxh3TUUwYe-11" edge="1">
          <mxGeometry relative="1" as="geometry" />
        </mxCell>
        <mxCell id="Z4MWUMGOCCTxh3TUUwYe-15" value="Ya" style="edgeLabel;html=1;align=center;verticalAlign=middle;resizable=0;points=[];" parent="Z4MWUMGOCCTxh3TUUwYe-12" vertex="1" connectable="0">
          <mxGeometry x="-0.1005" y="2" relative="1" as="geometry">
            <mxPoint as="offset" />
          </mxGeometry>
        </mxCell>
        <mxCell id="Z4MWUMGOCCTxh3TUUwYe-17" style="edgeStyle=orthogonalEdgeStyle;rounded=0;orthogonalLoop=1;jettySize=auto;html=1;entryX=0;entryY=0.5;entryDx=0;entryDy=0;" parent="WIyWlLk6GJQsqaUBKTNV-1" source="Z4MWUMGOCCTxh3TUUwYe-5" target="Z4MWUMGOCCTxh3TUUwYe-16" edge="1">
          <mxGeometry relative="1" as="geometry">
            <Array as="points">
              <mxPoint x="300" y="430" />
              <mxPoint x="300" y="830" />
            </Array>
          </mxGeometry>
        </mxCell>
        <mxCell id="Z4MWUMGOCCTxh3TUUwYe-5" value="i&amp;lt;angka.length" style="rhombus;whiteSpace=wrap;html=1;" parent="WIyWlLk6GJQsqaUBKTNV-1" vertex="1">
          <mxGeometry x="356" y="390" width="116" height="80" as="geometry" />
        </mxCell>
        <mxCell id="Z4MWUMGOCCTxh3TUUwYe-14" style="edgeStyle=orthogonalEdgeStyle;rounded=0;orthogonalLoop=1;jettySize=auto;html=1;entryX=1;entryY=0.5;entryDx=0;entryDy=0;" parent="WIyWlLk6GJQsqaUBKTNV-1" source="Z4MWUMGOCCTxh3TUUwYe-9" target="Z4MWUMGOCCTxh3TUUwYe-5" edge="1">
          <mxGeometry relative="1" as="geometry">
            <Array as="points">
              <mxPoint x="540" y="730" />
              <mxPoint x="540" y="430" />
            </Array>
          </mxGeometry>
        </mxCell>
        <mxCell id="Z4MWUMGOCCTxh3TUUwYe-9" value="angka++" style="whiteSpace=wrap;html=1;" parent="WIyWlLk6GJQsqaUBKTNV-1" vertex="1">
          <mxGeometry x="354" y="700" width="120" height="60" as="geometry" />
        </mxCell>
        <mxCell id="Z4MWUMGOCCTxh3TUUwYe-13" style="edgeStyle=orthogonalEdgeStyle;rounded=0;orthogonalLoop=1;jettySize=auto;html=1;entryX=0.5;entryY=0;entryDx=0;entryDy=0;" parent="WIyWlLk6GJQsqaUBKTNV-1" source="Z4MWUMGOCCTxh3TUUwYe-11" target="Z4MWUMGOCCTxh3TUUwYe-9" edge="1">
          <mxGeometry relative="1" as="geometry" />
        </mxCell>
        <mxCell id="Z4MWUMGOCCTxh3TUUwYe-11" value="Print &quot;Masukkan urutan angka: &quot;+angka" style="shape=parallelogram;perimeter=parallelogramPerimeter;whiteSpace=wrap;html=1;fixedSize=1;" parent="WIyWlLk6GJQsqaUBKTNV-1" vertex="1">
          <mxGeometry x="354" y="560" width="120" height="60" as="geometry" />
        </mxCell>
        <mxCell id="Z4MWUMGOCCTxh3TUUwYe-16" value="End" style="ellipse;whiteSpace=wrap;html=1;" parent="WIyWlLk6GJQsqaUBKTNV-1" vertex="1">
          <mxGeometry x="354" y="790" width="120" height="80" as="geometry" />
        </mxCell>
      </root>
    </mxGraphModel>
  </diagram>
  <diagram id="TOcV_GrBXZoVcjGgDPmj" name="2">
    <mxGraphModel dx="953" dy="1313" grid="1" gridSize="10" guides="1" tooltips="1" connect="1" arrows="1" fold="1" page="1" pageScale="1" pageWidth="827" pageHeight="1169" math="0" shadow="0">
      <root>
        <mxCell id="0" />
        <mxCell id="1" parent="0" />
        <mxCell id="MWwmzQCoWnG2rdK_F3Yo-3" value="" style="edgeStyle=orthogonalEdgeStyle;rounded=0;orthogonalLoop=1;jettySize=auto;html=1;" edge="1" parent="1" source="MWwmzQCoWnG2rdK_F3Yo-1" target="MWwmzQCoWnG2rdK_F3Yo-2">
          <mxGeometry relative="1" as="geometry" />
        </mxCell>
        <mxCell id="MWwmzQCoWnG2rdK_F3Yo-1" value="Start" style="ellipse;whiteSpace=wrap;html=1;" vertex="1" parent="1">
          <mxGeometry x="210" y="30" width="120" height="80" as="geometry" />
        </mxCell>
        <mxCell id="MWwmzQCoWnG2rdK_F3Yo-5" value="" style="edgeStyle=orthogonalEdgeStyle;rounded=0;orthogonalLoop=1;jettySize=auto;html=1;" edge="1" parent="1" source="MWwmzQCoWnG2rdK_F3Yo-2" target="MWwmzQCoWnG2rdK_F3Yo-4">
          <mxGeometry relative="1" as="geometry" />
        </mxCell>
        <mxCell id="MWwmzQCoWnG2rdK_F3Yo-2" value="int angka[] = new int[10], pjgAngka, temp" style="shape=hexagon;perimeter=hexagonPerimeter2;whiteSpace=wrap;html=1;fixedSize=1;" vertex="1" parent="1">
          <mxGeometry x="210" y="150" width="120" height="80" as="geometry" />
        </mxCell>
        <mxCell id="MWwmzQCoWnG2rdK_F3Yo-7" value="" style="edgeStyle=orthogonalEdgeStyle;rounded=0;orthogonalLoop=1;jettySize=auto;html=1;" edge="1" parent="1" source="MWwmzQCoWnG2rdK_F3Yo-4" target="MWwmzQCoWnG2rdK_F3Yo-6">
          <mxGeometry relative="1" as="geometry" />
        </mxCell>
        <mxCell id="MWwmzQCoWnG2rdK_F3Yo-4" value="int i = 0" style="whiteSpace=wrap;html=1;" vertex="1" parent="1">
          <mxGeometry x="210" y="270" width="120" height="60" as="geometry" />
        </mxCell>
        <mxCell id="MWwmzQCoWnG2rdK_F3Yo-9" value="" style="edgeStyle=orthogonalEdgeStyle;rounded=0;orthogonalLoop=1;jettySize=auto;html=1;" edge="1" parent="1" source="MWwmzQCoWnG2rdK_F3Yo-6" target="MWwmzQCoWnG2rdK_F3Yo-8">
          <mxGeometry relative="1" as="geometry" />
        </mxCell>
        <mxCell id="MWwmzQCoWnG2rdK_F3Yo-12" value="Ya" style="edgeLabel;html=1;align=center;verticalAlign=middle;resizable=0;points=[];" vertex="1" connectable="0" parent="MWwmzQCoWnG2rdK_F3Yo-9">
          <mxGeometry x="-0.5733" y="-2" relative="1" as="geometry">
            <mxPoint as="offset" />
          </mxGeometry>
        </mxCell>
        <mxCell id="MWwmzQCoWnG2rdK_F3Yo-30" style="edgeStyle=orthogonalEdgeStyle;rounded=0;orthogonalLoop=1;jettySize=auto;html=1;entryX=0;entryY=0.5;entryDx=0;entryDy=0;" edge="1" parent="1" source="MWwmzQCoWnG2rdK_F3Yo-6" target="MWwmzQCoWnG2rdK_F3Yo-29">
          <mxGeometry relative="1" as="geometry">
            <Array as="points">
              <mxPoint x="40" y="400" />
              <mxPoint x="40" y="1045" />
            </Array>
          </mxGeometry>
        </mxCell>
        <mxCell id="MWwmzQCoWnG2rdK_F3Yo-6" value="i&amp;lt;pjgAngka" style="rhombus;whiteSpace=wrap;html=1;" vertex="1" parent="1">
          <mxGeometry x="230" y="360" width="80" height="80" as="geometry" />
        </mxCell>
        <mxCell id="MWwmzQCoWnG2rdK_F3Yo-11" value="" style="edgeStyle=orthogonalEdgeStyle;rounded=0;orthogonalLoop=1;jettySize=auto;html=1;" edge="1" parent="1" source="MWwmzQCoWnG2rdK_F3Yo-8" target="MWwmzQCoWnG2rdK_F3Yo-10">
          <mxGeometry relative="1" as="geometry" />
        </mxCell>
        <mxCell id="MWwmzQCoWnG2rdK_F3Yo-13" value="Ya" style="edgeLabel;html=1;align=center;verticalAlign=middle;resizable=0;points=[];" vertex="1" connectable="0" parent="MWwmzQCoWnG2rdK_F3Yo-11">
          <mxGeometry x="-0.2622" relative="1" as="geometry">
            <mxPoint as="offset" />
          </mxGeometry>
        </mxCell>
        <mxCell id="MWwmzQCoWnG2rdK_F3Yo-8" value="int j = 1" style="whiteSpace=wrap;html=1;" vertex="1" parent="1">
          <mxGeometry x="210" y="480" width="120" height="60" as="geometry" />
        </mxCell>
        <mxCell id="MWwmzQCoWnG2rdK_F3Yo-15" value="" style="edgeStyle=orthogonalEdgeStyle;rounded=0;orthogonalLoop=1;jettySize=auto;html=1;" edge="1" parent="1" source="MWwmzQCoWnG2rdK_F3Yo-10" target="MWwmzQCoWnG2rdK_F3Yo-14">
          <mxGeometry relative="1" as="geometry" />
        </mxCell>
        <mxCell id="MWwmzQCoWnG2rdK_F3Yo-27" style="edgeStyle=orthogonalEdgeStyle;rounded=0;orthogonalLoop=1;jettySize=auto;html=1;entryX=0;entryY=0.5;entryDx=0;entryDy=0;jumpStyle=arc;" edge="1" parent="1" source="MWwmzQCoWnG2rdK_F3Yo-10" target="MWwmzQCoWnG2rdK_F3Yo-26">
          <mxGeometry relative="1" as="geometry">
            <mxPoint x="200" y="930" as="targetPoint" />
            <Array as="points">
              <mxPoint x="190" y="630" />
              <mxPoint x="190" y="923" />
            </Array>
          </mxGeometry>
        </mxCell>
        <mxCell id="MWwmzQCoWnG2rdK_F3Yo-10" value="j&amp;lt;pjgAngka-1" style="rhombus;whiteSpace=wrap;html=1;" vertex="1" parent="1">
          <mxGeometry x="230" y="590" width="80" height="80" as="geometry" />
        </mxCell>
        <mxCell id="MWwmzQCoWnG2rdK_F3Yo-17" value="" style="edgeStyle=orthogonalEdgeStyle;rounded=0;orthogonalLoop=1;jettySize=auto;html=1;jumpStyle=arc;" edge="1" parent="1" source="MWwmzQCoWnG2rdK_F3Yo-14" target="MWwmzQCoWnG2rdK_F3Yo-16">
          <mxGeometry relative="1" as="geometry" />
        </mxCell>
        <mxCell id="MWwmzQCoWnG2rdK_F3Yo-21" value="Ya" style="edgeLabel;html=1;align=center;verticalAlign=middle;resizable=0;points=[];" vertex="1" connectable="0" parent="MWwmzQCoWnG2rdK_F3Yo-17">
          <mxGeometry x="-0.5704" y="-2" relative="1" as="geometry">
            <mxPoint as="offset" />
          </mxGeometry>
        </mxCell>
        <mxCell id="MWwmzQCoWnG2rdK_F3Yo-19" value="" style="edgeStyle=orthogonalEdgeStyle;rounded=0;orthogonalLoop=1;jettySize=auto;html=1;" edge="1" parent="1" source="MWwmzQCoWnG2rdK_F3Yo-14" target="MWwmzQCoWnG2rdK_F3Yo-18">
          <mxGeometry relative="1" as="geometry" />
        </mxCell>
        <mxCell id="MWwmzQCoWnG2rdK_F3Yo-22" value="Tidak" style="edgeLabel;html=1;align=center;verticalAlign=middle;resizable=0;points=[];" vertex="1" connectable="0" parent="MWwmzQCoWnG2rdK_F3Yo-19">
          <mxGeometry x="-0.3556" y="-4" relative="1" as="geometry">
            <mxPoint as="offset" />
          </mxGeometry>
        </mxCell>
        <mxCell id="MWwmzQCoWnG2rdK_F3Yo-14" value="angka[j-1]&amp;gt;&lt;br&gt;angka[j]" style="rhombus;whiteSpace=wrap;html=1;" vertex="1" parent="1">
          <mxGeometry x="230" y="710" width="80" height="80" as="geometry" />
        </mxCell>
        <mxCell id="MWwmzQCoWnG2rdK_F3Yo-20" style="edgeStyle=orthogonalEdgeStyle;rounded=0;orthogonalLoop=1;jettySize=auto;html=1;entryX=0;entryY=0.5;entryDx=0;entryDy=0;jumpStyle=arc;" edge="1" parent="1" source="MWwmzQCoWnG2rdK_F3Yo-16" target="MWwmzQCoWnG2rdK_F3Yo-18">
          <mxGeometry relative="1" as="geometry">
            <Array as="points">
              <mxPoint x="110" y="845" />
            </Array>
          </mxGeometry>
        </mxCell>
        <mxCell id="MWwmzQCoWnG2rdK_F3Yo-16" value="temp = angka[j+1]&lt;br&gt;angka[j+1] = angka[j]&lt;br&gt;&amp;nbsp;angka[j] = temp" style="whiteSpace=wrap;html=1;" vertex="1" parent="1">
          <mxGeometry x="50" y="720" width="120" height="60" as="geometry" />
        </mxCell>
        <mxCell id="MWwmzQCoWnG2rdK_F3Yo-24" value="" style="edgeStyle=orthogonalEdgeStyle;rounded=0;orthogonalLoop=1;jettySize=auto;html=1;" edge="1" parent="1" source="MWwmzQCoWnG2rdK_F3Yo-18" target="MWwmzQCoWnG2rdK_F3Yo-23">
          <mxGeometry relative="1" as="geometry" />
        </mxCell>
        <mxCell id="MWwmzQCoWnG2rdK_F3Yo-18" value="" style="ellipse;whiteSpace=wrap;html=1;" vertex="1" parent="1">
          <mxGeometry x="255" y="830" width="30" height="30" as="geometry" />
        </mxCell>
        <mxCell id="MWwmzQCoWnG2rdK_F3Yo-25" style="edgeStyle=orthogonalEdgeStyle;rounded=0;orthogonalLoop=1;jettySize=auto;html=1;entryX=1;entryY=0.5;entryDx=0;entryDy=0;" edge="1" parent="1" source="MWwmzQCoWnG2rdK_F3Yo-23" target="MWwmzQCoWnG2rdK_F3Yo-10">
          <mxGeometry relative="1" as="geometry">
            <Array as="points">
              <mxPoint x="470" y="843" />
              <mxPoint x="470" y="630" />
            </Array>
          </mxGeometry>
        </mxCell>
        <mxCell id="MWwmzQCoWnG2rdK_F3Yo-23" value="j++" style="whiteSpace=wrap;html=1;" vertex="1" parent="1">
          <mxGeometry x="320" y="832" width="120" height="25" as="geometry" />
        </mxCell>
        <mxCell id="MWwmzQCoWnG2rdK_F3Yo-28" style="edgeStyle=orthogonalEdgeStyle;rounded=0;orthogonalLoop=1;jettySize=auto;html=1;entryX=1;entryY=0.5;entryDx=0;entryDy=0;" edge="1" parent="1" source="MWwmzQCoWnG2rdK_F3Yo-26" target="MWwmzQCoWnG2rdK_F3Yo-6">
          <mxGeometry relative="1" as="geometry">
            <Array as="points">
              <mxPoint x="490" y="923" />
              <mxPoint x="490" y="400" />
            </Array>
          </mxGeometry>
        </mxCell>
        <mxCell id="MWwmzQCoWnG2rdK_F3Yo-26" value="i++" style="whiteSpace=wrap;html=1;" vertex="1" parent="1">
          <mxGeometry x="210" y="910" width="120" height="25" as="geometry" />
        </mxCell>
        <mxCell id="MWwmzQCoWnG2rdK_F3Yo-32" style="edgeStyle=orthogonalEdgeStyle;rounded=0;orthogonalLoop=1;jettySize=auto;html=1;entryX=0;entryY=0.5;entryDx=0;entryDy=0;" edge="1" parent="1" source="MWwmzQCoWnG2rdK_F3Yo-29" target="MWwmzQCoWnG2rdK_F3Yo-31">
          <mxGeometry relative="1" as="geometry">
            <Array as="points">
              <mxPoint x="510" y="1045" />
              <mxPoint x="510" y="425" />
            </Array>
          </mxGeometry>
        </mxCell>
        <mxCell id="MWwmzQCoWnG2rdK_F3Yo-29" value="" style="ellipse;whiteSpace=wrap;html=1;" vertex="1" parent="1">
          <mxGeometry x="255" y="1030" width="30" height="30" as="geometry" />
        </mxCell>
        <mxCell id="MWwmzQCoWnG2rdK_F3Yo-34" style="edgeStyle=orthogonalEdgeStyle;rounded=0;orthogonalLoop=1;jettySize=auto;html=1;entryX=0.5;entryY=0;entryDx=0;entryDy=0;" edge="1" parent="1" source="MWwmzQCoWnG2rdK_F3Yo-31" target="MWwmzQCoWnG2rdK_F3Yo-33">
          <mxGeometry relative="1" as="geometry" />
        </mxCell>
        <mxCell id="MWwmzQCoWnG2rdK_F3Yo-31" value="" style="ellipse;whiteSpace=wrap;html=1;" vertex="1" parent="1">
          <mxGeometry x="670" y="410" width="30" height="30" as="geometry" />
        </mxCell>
        <mxCell id="MWwmzQCoWnG2rdK_F3Yo-36" value="" style="edgeStyle=orthogonalEdgeStyle;rounded=0;orthogonalLoop=1;jettySize=auto;html=1;" edge="1" parent="1" source="MWwmzQCoWnG2rdK_F3Yo-33" target="MWwmzQCoWnG2rdK_F3Yo-35">
          <mxGeometry relative="1" as="geometry" />
        </mxCell>
        <mxCell id="MWwmzQCoWnG2rdK_F3Yo-33" value="i=0" style="whiteSpace=wrap;html=1;" vertex="1" parent="1">
          <mxGeometry x="625" y="470" width="120" height="25" as="geometry" />
        </mxCell>
        <mxCell id="MWwmzQCoWnG2rdK_F3Yo-38" value="" style="edgeStyle=orthogonalEdgeStyle;rounded=0;orthogonalLoop=1;jettySize=auto;html=1;" edge="1" parent="1" source="MWwmzQCoWnG2rdK_F3Yo-35" target="MWwmzQCoWnG2rdK_F3Yo-37">
          <mxGeometry relative="1" as="geometry" />
        </mxCell>
        <mxCell id="MWwmzQCoWnG2rdK_F3Yo-44" value="Ya" style="edgeLabel;html=1;align=center;verticalAlign=middle;resizable=0;points=[];" vertex="1" connectable="0" parent="MWwmzQCoWnG2rdK_F3Yo-38">
          <mxGeometry x="-0.4476" relative="1" as="geometry">
            <mxPoint as="offset" />
          </mxGeometry>
        </mxCell>
        <mxCell id="MWwmzQCoWnG2rdK_F3Yo-43" style="edgeStyle=orthogonalEdgeStyle;rounded=0;orthogonalLoop=1;jettySize=auto;html=1;entryX=1;entryY=0.5;entryDx=0;entryDy=0;" edge="1" parent="1" source="MWwmzQCoWnG2rdK_F3Yo-35" target="MWwmzQCoWnG2rdK_F3Yo-42">
          <mxGeometry relative="1" as="geometry">
            <Array as="points">
              <mxPoint x="770" y="588" />
              <mxPoint x="770" y="897" />
            </Array>
          </mxGeometry>
        </mxCell>
        <mxCell id="MWwmzQCoWnG2rdK_F3Yo-45" value="Tidak" style="edgeLabel;html=1;align=center;verticalAlign=middle;resizable=0;points=[];" vertex="1" connectable="0" parent="MWwmzQCoWnG2rdK_F3Yo-43">
          <mxGeometry x="-0.866" y="1" relative="1" as="geometry">
            <mxPoint as="offset" />
          </mxGeometry>
        </mxCell>
        <mxCell id="MWwmzQCoWnG2rdK_F3Yo-35" value="i&amp;lt;pjgAngka" style="rhombus;whiteSpace=wrap;html=1;" vertex="1" parent="1">
          <mxGeometry x="645" y="547.5" width="80" height="80" as="geometry" />
        </mxCell>
        <mxCell id="MWwmzQCoWnG2rdK_F3Yo-40" style="edgeStyle=orthogonalEdgeStyle;rounded=0;orthogonalLoop=1;jettySize=auto;html=1;entryX=0.5;entryY=0;entryDx=0;entryDy=0;" edge="1" parent="1" source="MWwmzQCoWnG2rdK_F3Yo-37" target="MWwmzQCoWnG2rdK_F3Yo-39">
          <mxGeometry relative="1" as="geometry" />
        </mxCell>
        <mxCell id="MWwmzQCoWnG2rdK_F3Yo-37" value="Print angka[i]" style="shape=parallelogram;perimeter=parallelogramPerimeter;whiteSpace=wrap;html=1;fixedSize=1;" vertex="1" parent="1">
          <mxGeometry x="625" y="680" width="120" height="60" as="geometry" />
        </mxCell>
        <mxCell id="MWwmzQCoWnG2rdK_F3Yo-41" style="edgeStyle=orthogonalEdgeStyle;rounded=0;orthogonalLoop=1;jettySize=auto;html=1;entryX=0;entryY=0.5;entryDx=0;entryDy=0;" edge="1" parent="1" source="MWwmzQCoWnG2rdK_F3Yo-39" target="MWwmzQCoWnG2rdK_F3Yo-35">
          <mxGeometry relative="1" as="geometry">
            <Array as="points">
              <mxPoint x="605" y="803" />
              <mxPoint x="605" y="588" />
            </Array>
          </mxGeometry>
        </mxCell>
        <mxCell id="MWwmzQCoWnG2rdK_F3Yo-39" value="i++" style="whiteSpace=wrap;html=1;" vertex="1" parent="1">
          <mxGeometry x="625" y="790" width="120" height="25" as="geometry" />
        </mxCell>
        <mxCell id="MWwmzQCoWnG2rdK_F3Yo-42" value="End" style="ellipse;whiteSpace=wrap;html=1;" vertex="1" parent="1">
          <mxGeometry x="625" y="857" width="120" height="80" as="geometry" />
        </mxCell>
      </root>
    </mxGraphModel>
  </diagram>
  <diagram id="zmK1HbHLu37ZtMZn4VYL" name="3">
    <mxGraphModel dx="673" dy="927" grid="1" gridSize="10" guides="1" tooltips="1" connect="1" arrows="1" fold="1" page="1" pageScale="1" pageWidth="827" pageHeight="1169" math="0" shadow="0">
      <root>
        <mxCell id="0" />
        <mxCell id="1" parent="0" />
        <mxCell id="s6e--BuJ9sPcA0i20fX2-3" style="edgeStyle=orthogonalEdgeStyle;rounded=0;orthogonalLoop=1;jettySize=auto;html=1;entryX=0.5;entryY=0;entryDx=0;entryDy=0;" edge="1" parent="1" source="s6e--BuJ9sPcA0i20fX2-1" target="s6e--BuJ9sPcA0i20fX2-2">
          <mxGeometry relative="1" as="geometry" />
        </mxCell>
        <mxCell id="s6e--BuJ9sPcA0i20fX2-1" value="Start" style="ellipse;whiteSpace=wrap;html=1;" vertex="1" parent="1">
          <mxGeometry x="170" y="50" width="120" height="80" as="geometry" />
        </mxCell>
        <mxCell id="s6e--BuJ9sPcA0i20fX2-5" style="edgeStyle=orthogonalEdgeStyle;rounded=0;orthogonalLoop=1;jettySize=auto;html=1;entryX=0.5;entryY=0;entryDx=0;entryDy=0;" edge="1" parent="1" source="s6e--BuJ9sPcA0i20fX2-2" target="s6e--BuJ9sPcA0i20fX2-8">
          <mxGeometry relative="1" as="geometry">
            <mxPoint x="230" y="310" as="targetPoint" />
          </mxGeometry>
        </mxCell>
        <mxCell id="s6e--BuJ9sPcA0i20fX2-2" value="String bulan[] = {&quot;Jan&quot;,&quot;Feb&quot;,&lt;br&gt;&quot;Mar&quot;,&quot;Apr&quot;,&quot;Mei&quot;,&quot;Jun&quot;,&quot;Jul&quot;, &quot;Aug&quot;,&quot;Sep&quot;,&quot;Oct&quot;, &lt;br&gt;&quot;Nov&quot;,&quot;&quot;Dec}" style="shape=hexagon;perimeter=hexagonPerimeter2;whiteSpace=wrap;html=1;fixedSize=1;" vertex="1" parent="1">
          <mxGeometry x="135" y="190" width="190" height="80" as="geometry" />
        </mxCell>
        <mxCell id="s6e--BuJ9sPcA0i20fX2-14" style="edgeStyle=orthogonalEdgeStyle;rounded=0;orthogonalLoop=1;jettySize=auto;html=1;entryX=0.5;entryY=0;entryDx=0;entryDy=0;" edge="1" parent="1" source="s6e--BuJ9sPcA0i20fX2-8" target="s6e--BuJ9sPcA0i20fX2-15">
          <mxGeometry relative="1" as="geometry">
            <mxPoint x="230" y="410" as="targetPoint" />
          </mxGeometry>
        </mxCell>
        <mxCell id="s6e--BuJ9sPcA0i20fX2-8" value="Print &quot;Masukkan angka: &quot;" style="shape=parallelogram;perimeter=parallelogramPerimeter;whiteSpace=wrap;html=1;fixedSize=1;" vertex="1" parent="1">
          <mxGeometry x="170" y="310" width="120" height="60" as="geometry" />
        </mxCell>
        <mxCell id="s6e--BuJ9sPcA0i20fX2-18" style="edgeStyle=orthogonalEdgeStyle;rounded=0;orthogonalLoop=1;jettySize=auto;html=1;entryX=0.5;entryY=0;entryDx=0;entryDy=0;" edge="1" parent="1" source="s6e--BuJ9sPcA0i20fX2-11" target="s6e--BuJ9sPcA0i20fX2-17">
          <mxGeometry relative="1" as="geometry" />
        </mxCell>
        <mxCell id="s6e--BuJ9sPcA0i20fX2-11" value="Print &quot;Angka &quot;+j+&lt;br&gt;&quot; merupakan bulan &lt;br&gt;&quot;+bulan[j-1]" style="shape=parallelogram;perimeter=parallelogramPerimeter;whiteSpace=wrap;html=1;fixedSize=1;" vertex="1" parent="1">
          <mxGeometry x="170" y="524" width="120" height="60" as="geometry" />
        </mxCell>
        <mxCell id="s6e--BuJ9sPcA0i20fX2-16" style="edgeStyle=orthogonalEdgeStyle;rounded=0;orthogonalLoop=1;jettySize=auto;html=1;" edge="1" parent="1" source="s6e--BuJ9sPcA0i20fX2-15" target="s6e--BuJ9sPcA0i20fX2-11">
          <mxGeometry relative="1" as="geometry" />
        </mxCell>
        <mxCell id="s6e--BuJ9sPcA0i20fX2-15" value="int j = sc.nextInt()" style="shape=parallelogram;perimeter=parallelogramPerimeter;whiteSpace=wrap;html=1;fixedSize=1;" vertex="1" parent="1">
          <mxGeometry x="170" y="410" width="120" height="60" as="geometry" />
        </mxCell>
        <mxCell id="s6e--BuJ9sPcA0i20fX2-17" value="End" style="ellipse;whiteSpace=wrap;html=1;" vertex="1" parent="1">
          <mxGeometry x="170" y="620" width="120" height="80" as="geometry" />
        </mxCell>
      </root>
    </mxGraphModel>
  </diagram>
  <diagram id="uNZjuC_v865Qplh5eu69" name="4">
    <mxGraphModel dx="429" dy="716" grid="1" gridSize="10" guides="1" tooltips="1" connect="1" arrows="1" fold="1" page="1" pageScale="1" pageWidth="827" pageHeight="1169" math="0" shadow="0">
      <root>
        <mxCell id="0" />
        <mxCell id="1" parent="0" />
        <mxCell id="6TtTrUlOREKOAsBk5PXB-2" value="" style="edgeStyle=orthogonalEdgeStyle;rounded=0;orthogonalLoop=1;jettySize=auto;html=1;" parent="1" source="LgfaMogu6HaB70QqPUsa-1" target="6TtTrUlOREKOAsBk5PXB-1" edge="1">
          <mxGeometry relative="1" as="geometry" />
        </mxCell>
        <mxCell id="LgfaMogu6HaB70QqPUsa-1" value="Start" style="ellipse;whiteSpace=wrap;html=1;" parent="1" vertex="1">
          <mxGeometry x="290" y="60" width="120" height="80" as="geometry" />
        </mxCell>
        <mxCell id="UgXAj9rZBN2ycAxyj0qY-2" value="" style="edgeStyle=orthogonalEdgeStyle;rounded=0;orthogonalLoop=1;jettySize=auto;html=1;" edge="1" parent="1" source="6TtTrUlOREKOAsBk5PXB-1" target="UgXAj9rZBN2ycAxyj0qY-1">
          <mxGeometry relative="1" as="geometry" />
        </mxCell>
        <mxCell id="6TtTrUlOREKOAsBk5PXB-1" value="int bil[] = new int[8]&lt;br&gt;int avg" style="shape=hexagon;perimeter=hexagonPerimeter2;whiteSpace=wrap;html=1;fixedSize=1;" parent="1" vertex="1">
          <mxGeometry x="290" y="180" width="120" height="80" as="geometry" />
        </mxCell>
        <mxCell id="UgXAj9rZBN2ycAxyj0qY-4" value="" style="edgeStyle=orthogonalEdgeStyle;rounded=0;orthogonalLoop=1;jettySize=auto;html=1;" edge="1" parent="1" source="UgXAj9rZBN2ycAxyj0qY-1" target="UgXAj9rZBN2ycAxyj0qY-3">
          <mxGeometry relative="1" as="geometry" />
        </mxCell>
        <mxCell id="UgXAj9rZBN2ycAxyj0qY-1" value="int i = 0" style="whiteSpace=wrap;html=1;" vertex="1" parent="1">
          <mxGeometry x="290" y="300" width="120" height="30" as="geometry" />
        </mxCell>
        <mxCell id="UgXAj9rZBN2ycAxyj0qY-6" value="" style="edgeStyle=orthogonalEdgeStyle;rounded=0;orthogonalLoop=1;jettySize=auto;html=1;" edge="1" parent="1" source="UgXAj9rZBN2ycAxyj0qY-3" target="UgXAj9rZBN2ycAxyj0qY-5">
          <mxGeometry relative="1" as="geometry" />
        </mxCell>
        <mxCell id="UgXAj9rZBN2ycAxyj0qY-14" value="Ya" style="edgeLabel;html=1;align=center;verticalAlign=middle;resizable=0;points=[];" vertex="1" connectable="0" parent="UgXAj9rZBN2ycAxyj0qY-6">
          <mxGeometry x="-0.4788" y="2" relative="1" as="geometry">
            <mxPoint as="offset" />
          </mxGeometry>
        </mxCell>
        <mxCell id="UgXAj9rZBN2ycAxyj0qY-11" value="" style="edgeStyle=orthogonalEdgeStyle;rounded=0;orthogonalLoop=1;jettySize=auto;html=1;" edge="1" parent="1" source="UgXAj9rZBN2ycAxyj0qY-3" target="UgXAj9rZBN2ycAxyj0qY-10">
          <mxGeometry relative="1" as="geometry">
            <Array as="points">
              <mxPoint x="250" y="425" />
              <mxPoint x="250" y="670" />
            </Array>
          </mxGeometry>
        </mxCell>
        <mxCell id="UgXAj9rZBN2ycAxyj0qY-15" value="Tidak" style="edgeLabel;html=1;align=center;verticalAlign=middle;resizable=0;points=[];" vertex="1" connectable="0" parent="UgXAj9rZBN2ycAxyj0qY-11">
          <mxGeometry x="-0.8837" y="1" relative="1" as="geometry">
            <mxPoint as="offset" />
          </mxGeometry>
        </mxCell>
        <mxCell id="UgXAj9rZBN2ycAxyj0qY-3" value="i&amp;lt;bil.length" style="rhombus;whiteSpace=wrap;html=1;" vertex="1" parent="1">
          <mxGeometry x="310" y="385" width="80" height="80" as="geometry" />
        </mxCell>
        <mxCell id="UgXAj9rZBN2ycAxyj0qY-8" value="" style="edgeStyle=orthogonalEdgeStyle;rounded=0;orthogonalLoop=1;jettySize=auto;html=1;" edge="1" parent="1" source="UgXAj9rZBN2ycAxyj0qY-5" target="UgXAj9rZBN2ycAxyj0qY-7">
          <mxGeometry relative="1" as="geometry" />
        </mxCell>
        <mxCell id="UgXAj9rZBN2ycAxyj0qY-5" value="avg += bil[i] / 8" style="whiteSpace=wrap;html=1;" vertex="1" parent="1">
          <mxGeometry x="290" y="500" width="120" height="60" as="geometry" />
        </mxCell>
        <mxCell id="UgXAj9rZBN2ycAxyj0qY-9" style="edgeStyle=orthogonalEdgeStyle;rounded=0;orthogonalLoop=1;jettySize=auto;html=1;entryX=1;entryY=0.5;entryDx=0;entryDy=0;" edge="1" parent="1" source="UgXAj9rZBN2ycAxyj0qY-7" target="UgXAj9rZBN2ycAxyj0qY-3">
          <mxGeometry relative="1" as="geometry">
            <Array as="points">
              <mxPoint x="460" y="613" />
              <mxPoint x="460" y="425" />
            </Array>
          </mxGeometry>
        </mxCell>
        <mxCell id="UgXAj9rZBN2ycAxyj0qY-7" value="i++" style="whiteSpace=wrap;html=1;" vertex="1" parent="1">
          <mxGeometry x="290" y="600" width="120" height="25" as="geometry" />
        </mxCell>
        <mxCell id="UgXAj9rZBN2ycAxyj0qY-13" value="" style="edgeStyle=orthogonalEdgeStyle;rounded=0;orthogonalLoop=1;jettySize=auto;html=1;" edge="1" parent="1" source="UgXAj9rZBN2ycAxyj0qY-10" target="UgXAj9rZBN2ycAxyj0qY-12">
          <mxGeometry relative="1" as="geometry" />
        </mxCell>
        <mxCell id="UgXAj9rZBN2ycAxyj0qY-10" value="Print avg" style="shape=parallelogram;perimeter=parallelogramPerimeter;whiteSpace=wrap;html=1;fixedSize=1;" vertex="1" parent="1">
          <mxGeometry x="293" y="640" width="120" height="60" as="geometry" />
        </mxCell>
        <mxCell id="UgXAj9rZBN2ycAxyj0qY-12" value="End" style="ellipse;whiteSpace=wrap;html=1;" vertex="1" parent="1">
          <mxGeometry x="293" y="730" width="120" height="80" as="geometry" />
        </mxCell>
      </root>
    </mxGraphModel>
  </diagram>
</mxfile>
